<?xml version="1.0" encoding="UTF-8" standalone="no"?>
<!DOCTYPE svg PUBLIC "-//W3C//DTD SVG 1.1//EN"
 "http://www.w3.org/Graphics/SVG/1.1/DTD/svg11.dtd">
<!-- Generated by graphviz version 2.47.0 (20210316.0004)
 -->
<!-- Title: dependencies Pages: 1 -->
<svg width="2810pt" height="284pt"
 viewBox="0.00 0.00 2810.00 284.00" xmlns="http://www.w3.org/2000/svg" xmlns:xlink="http://www.w3.org/1999/xlink">
<g id="graph0" class="graph" transform="scale(1 1) rotate(0) translate(4 280)">
<title>dependencies</title>
<polygon fill="white" stroke="transparent" points="-4,4 -4,-280 2806,-280 2806,4 -4,4"/>
<text text-anchor="start" x="1380.01" y="-42.4" font-family="Times-12" font-weight="bold" font-size="14.00">Legend</text>
<polygon fill="#ffffb3" stroke="transparent" points="1167,-10 1167,-30 1187,-30 1187,-10 1167,-10"/>
<text text-anchor="start" x="1190.63" y="-15.4" font-family="Times-12" font-size="14.00"> &#160;Declarations</text>
<polygon fill="#8dd3c7" stroke="transparent" points="1280,-10 1280,-30 1300,-30 1300,-10 1280,-10"/>
<text text-anchor="start" x="1303.73" y="-15.4" font-family="Times-12" font-size="14.00"> &#160;Module</text>
<polygon fill="#80b1d3" stroke="transparent" points="1366,-10 1366,-30 1386,-30 1386,-10 1366,-10"/>
<text text-anchor="start" x="1389.78" y="-15.4" font-family="Times-12" font-size="14.00"> &#160;Bootstrap</text>
<polygon fill="#fdb462" stroke="transparent" points="1463,-10 1463,-30 1483,-30 1483,-10 1463,-10"/>
<text text-anchor="start" x="1486.67" y="-15.4" font-family="Times-12" font-size="14.00"> &#160;Providers</text>
<polygon fill="#fb8072" stroke="transparent" points="1559,-10 1559,-30 1579,-30 1579,-10 1559,-10"/>
<text text-anchor="start" x="1582.73" y="-15.4" font-family="Times-12" font-size="14.00"> &#160;Exports</text>
<g id="clust1" class="cluster">
<title>cluster_AppModule</title>
<polygon fill="none" stroke="black" stroke-dasharray="1,5" points="8,-70 8,-268 546,-268 546,-70 8,-70"/>
</g>
<g id="clust2" class="cluster">
<title>cluster_AppModule_declarations</title>
<polygon fill="none" stroke="black" points="168,-78 168,-130 538,-130 538,-78 168,-78"/>
</g>
<g id="clust5" class="cluster">
<title>cluster_AppModule_imports</title>
<polygon fill="none" stroke="black" points="16,-78 16,-130 160,-130 160,-78 16,-78"/>
</g>
<g id="clust7" class="cluster">
<title>cluster_AppModule_bootstrap</title>
<polygon fill="none" stroke="black" points="229,-208 229,-260 353,-260 353,-208 229,-208"/>
</g>
<g id="clust15" class="cluster">
<title>cluster_LandingpagePageModule</title>
<polygon fill="none" stroke="black" stroke-dasharray="1,5" points="554,-70 554,-195 930,-195 930,-70 554,-70"/>
</g>
<g id="clust16" class="cluster">
<title>cluster_LandingpagePageModule_declarations</title>
<polygon fill="none" stroke="black" points="790,-78 790,-130 922,-130 922,-78 790,-78"/>
</g>
<g id="clust18" class="cluster">
<title>cluster_LandingpagePageModule_imports</title>
<polygon fill="none" stroke="black" points="562,-78 562,-130 782,-130 782,-78 562,-78"/>
</g>
<g id="clust28" class="cluster">
<title>cluster_LoginPageModule</title>
<polygon fill="none" stroke="black" stroke-dasharray="1,5" points="938,-70 938,-195 1236,-195 1236,-70 938,-70"/>
</g>
<g id="clust29" class="cluster">
<title>cluster_LoginPageModule_declarations</title>
<polygon fill="none" stroke="black" points="1136,-78 1136,-130 1228,-130 1228,-78 1136,-78"/>
</g>
<g id="clust31" class="cluster">
<title>cluster_LoginPageModule_imports</title>
<polygon fill="none" stroke="black" points="946,-78 946,-130 1128,-130 1128,-78 946,-78"/>
</g>
<g id="clust41" class="cluster">
<title>cluster_RegistrationPageModule</title>
<polygon fill="none" stroke="black" stroke-dasharray="1,5" points="1244,-70 1244,-195 1612,-195 1612,-70 1244,-70"/>
</g>
<g id="clust42" class="cluster">
<title>cluster_RegistrationPageModule_declarations</title>
<polygon fill="none" stroke="black" points="1476,-78 1476,-130 1604,-130 1604,-78 1476,-78"/>
</g>
<g id="clust44" class="cluster">
<title>cluster_RegistrationPageModule_imports</title>
<polygon fill="none" stroke="black" points="1252,-78 1252,-130 1468,-130 1468,-78 1252,-78"/>
</g>
<g id="clust54" class="cluster">
<title>cluster_Tab1PageModule</title>
<polygon fill="none" stroke="black" stroke-dasharray="1,5" points="1620,-70 1620,-195 1908,-195 1908,-70 1620,-70"/>
</g>
<g id="clust55" class="cluster">
<title>cluster_Tab1PageModule_declarations</title>
<polygon fill="none" stroke="black" points="1812,-78 1812,-130 1900,-130 1900,-78 1812,-78"/>
</g>
<g id="clust57" class="cluster">
<title>cluster_Tab1PageModule_imports</title>
<polygon fill="none" stroke="black" points="1628,-78 1628,-130 1804,-130 1804,-78 1628,-78"/>
</g>
<g id="clust67" class="cluster">
<title>cluster_Tab2PageModule</title>
<polygon fill="none" stroke="black" stroke-dasharray="1,5" points="1916,-70 1916,-195 2204,-195 2204,-70 1916,-70"/>
</g>
<g id="clust68" class="cluster">
<title>cluster_Tab2PageModule_declarations</title>
<polygon fill="none" stroke="black" points="2108,-78 2108,-130 2196,-130 2196,-78 2108,-78"/>
</g>
<g id="clust70" class="cluster">
<title>cluster_Tab2PageModule_imports</title>
<polygon fill="none" stroke="black" points="1924,-78 1924,-130 2100,-130 2100,-78 1924,-78"/>
</g>
<g id="clust80" class="cluster">
<title>cluster_Tab3PageModule</title>
<polygon fill="none" stroke="black" stroke-dasharray="1,5" points="2212,-70 2212,-195 2500,-195 2500,-70 2212,-70"/>
</g>
<g id="clust81" class="cluster">
<title>cluster_Tab3PageModule_declarations</title>
<polygon fill="none" stroke="black" points="2404,-78 2404,-130 2492,-130 2492,-78 2404,-78"/>
</g>
<g id="clust83" class="cluster">
<title>cluster_Tab3PageModule_imports</title>
<polygon fill="none" stroke="black" points="2220,-78 2220,-130 2396,-130 2396,-78 2220,-78"/>
</g>
<g id="clust93" class="cluster">
<title>cluster_TabsPageModule</title>
<polygon fill="none" stroke="black" stroke-dasharray="1,5" points="2508,-70 2508,-195 2794,-195 2794,-70 2508,-70"/>
</g>
<g id="clust94" class="cluster">
<title>cluster_TabsPageModule_declarations</title>
<polygon fill="none" stroke="black" points="2700,-78 2700,-130 2786,-130 2786,-78 2700,-78"/>
</g>
<g id="clust96" class="cluster">
<title>cluster_TabsPageModule_imports</title>
<polygon fill="none" stroke="black" points="2516,-78 2516,-130 2692,-130 2692,-78 2516,-78"/>
</g>
<!-- AppComponent -->
<g id="node1" class="node">
<title>AppComponent</title>
<polygon fill="#ffffb3" stroke="black" points="529.94,-122 424.06,-122 424.06,-86 529.94,-86 529.94,-122"/>
<text text-anchor="middle" x="477" y="-99.8" font-family="Times,serif" font-size="14.00">AppComponent</text>
</g>
<!-- AppModule -->
<g id="node3" class="node">
<title>AppModule</title>
<polygon fill="#8dd3c7" stroke="black" points="332.66,-187 329.66,-191 308.66,-191 305.66,-187 249.34,-187 249.34,-151 332.66,-151 332.66,-187"/>
<text text-anchor="middle" x="291" y="-164.8" font-family="Times,serif" font-size="14.00">AppModule</text>
</g>
<!-- AppComponent&#45;&gt;AppModule -->
<g id="edge1" class="edge">
<title>AppComponent&#45;&gt;AppModule</title>
<path fill="none" stroke="black" d="M477,-122.11C477,-141.34 477,-169 477,-169 477,-169 342.74,-169 342.74,-169"/>
<polygon fill="black" stroke="black" points="342.74,-165.5 332.74,-169 342.74,-172.5 342.74,-165.5"/>
</g>
<!-- NotificationSettingsModalComponent -->
<g id="node2" class="node">
<title>NotificationSettingsModalComponent</title>
<polygon fill="#ffffb3" stroke="black" points="406.15,-122 175.85,-122 175.85,-86 406.15,-86 406.15,-122"/>
<text text-anchor="middle" x="291" y="-99.8" font-family="Times,serif" font-size="14.00">NotificationSettingsModalComponent</text>
</g>
<!-- NotificationSettingsModalComponent&#45;&gt;AppModule -->
<g id="edge2" class="edge">
<title>NotificationSettingsModalComponent&#45;&gt;AppModule</title>
<path fill="none" stroke="black" d="M291,-122.11C291,-122.11 291,-140.99 291,-140.99"/>
<polygon fill="black" stroke="black" points="287.5,-140.99 291,-150.99 294.5,-140.99 287.5,-140.99"/>
</g>
<!-- AppComponent  -->
<g id="node5" class="node">
<title>AppComponent </title>
<polygon fill="#80b1d3" stroke="black" points="345.44,-252 236.56,-252 236.56,-216 345.44,-216 345.44,-252"/>
<text text-anchor="middle" x="291" y="-229.8" font-family="Times,serif" font-size="14.00">AppComponent </text>
</g>
<!-- AppModule&#45;&gt;AppComponent  -->
<g id="edge4" class="edge">
<title>AppModule&#45;&gt;AppComponent </title>
<path fill="none" stroke="black" stroke-dasharray="1,5" d="M291,-187.11C291,-187.11 291,-205.99 291,-205.99"/>
<polygon fill="black" stroke="black" points="287.5,-205.99 291,-215.99 294.5,-205.99 287.5,-205.99"/>
</g>
<!-- AppRoutingModule -->
<g id="node4" class="node">
<title>AppRoutingModule</title>
<polygon fill="#8dd3c7" stroke="black" points="152.27,-122 149.27,-126 128.27,-126 125.27,-122 23.73,-122 23.73,-86 152.27,-86 152.27,-122"/>
<text text-anchor="middle" x="88" y="-99.8" font-family="Times,serif" font-size="14.00">AppRoutingModule</text>
</g>
<!-- AppRoutingModule&#45;&gt;AppModule -->
<g id="edge3" class="edge">
<title>AppRoutingModule&#45;&gt;AppModule</title>
<path fill="none" stroke="black" d="M88,-122.11C88,-141.34 88,-169 88,-169 88,-169 238.94,-169 238.94,-169"/>
<polygon fill="black" stroke="black" points="238.94,-172.5 248.94,-169 238.94,-165.5 238.94,-172.5"/>
</g>
<!-- LandingpagePage -->
<g id="node6" class="node">
<title>LandingpagePage</title>
<polygon fill="#ffffb3" stroke="black" points="914.3,-122 797.7,-122 797.7,-86 914.3,-86 914.3,-122"/>
<text text-anchor="middle" x="856" y="-99.8" font-family="Times,serif" font-size="14.00">LandingpagePage</text>
</g>
<!-- LandingpagePageModule -->
<g id="node7" class="node">
<title>LandingpagePageModule</title>
<polygon fill="#8dd3c7" stroke="black" points="836.85,-187 833.85,-191 812.85,-191 809.85,-187 677.15,-187 677.15,-151 836.85,-151 836.85,-187"/>
<text text-anchor="middle" x="757" y="-164.8" font-family="Times,serif" font-size="14.00">LandingpagePageModule</text>
</g>
<!-- LandingpagePage&#45;&gt;LandingpagePageModule -->
<g id="edge5" class="edge">
<title>LandingpagePage&#45;&gt;LandingpagePageModule</title>
<path fill="none" stroke="black" d="M817.39,-122.11C817.39,-122.11 817.39,-140.99 817.39,-140.99"/>
<polygon fill="black" stroke="black" points="813.89,-140.99 817.39,-150.99 820.89,-140.99 813.89,-140.99"/>
</g>
<!-- LandingpagePageRoutingModule -->
<g id="node8" class="node">
<title>LandingpagePageRoutingModule</title>
<polygon fill="#8dd3c7" stroke="black" points="774.47,-122 771.47,-126 750.47,-126 747.47,-122 569.53,-122 569.53,-86 774.47,-86 774.47,-122"/>
<text text-anchor="middle" x="672" y="-99.8" font-family="Times,serif" font-size="14.00">LandingpagePageRoutingModule</text>
</g>
<!-- LandingpagePageRoutingModule&#45;&gt;LandingpagePageModule -->
<g id="edge6" class="edge">
<title>LandingpagePageRoutingModule&#45;&gt;LandingpagePageModule</title>
<path fill="none" stroke="black" d="M725.78,-122.11C725.78,-122.11 725.78,-140.99 725.78,-140.99"/>
<polygon fill="black" stroke="black" points="722.28,-140.99 725.78,-150.99 729.28,-140.99 722.28,-140.99"/>
</g>
<!-- LoginPage -->
<g id="node9" class="node">
<title>LoginPage</title>
<polygon fill="#ffffb3" stroke="black" points="1220.16,-122 1143.84,-122 1143.84,-86 1220.16,-86 1220.16,-122"/>
<text text-anchor="middle" x="1182" y="-99.8" font-family="Times,serif" font-size="14.00">LoginPage</text>
</g>
<!-- LoginPageModule -->
<g id="node10" class="node">
<title>LoginPageModule</title>
<polygon fill="#8dd3c7" stroke="black" points="1162.2,-187 1159.2,-191 1138.2,-191 1135.2,-187 1041.8,-187 1041.8,-151 1162.2,-151 1162.2,-187"/>
<text text-anchor="middle" x="1102" y="-164.8" font-family="Times,serif" font-size="14.00">LoginPageModule</text>
</g>
<!-- LoginPage&#45;&gt;LoginPageModule -->
<g id="edge7" class="edge">
<title>LoginPage&#45;&gt;LoginPageModule</title>
<path fill="none" stroke="black" d="M1152.89,-122.11C1152.89,-122.11 1152.89,-140.99 1152.89,-140.99"/>
<polygon fill="black" stroke="black" points="1149.39,-140.99 1152.89,-150.99 1156.39,-140.99 1149.39,-140.99"/>
</g>
<!-- LoginPageRoutingModule -->
<g id="node11" class="node">
<title>LoginPageRoutingModule</title>
<polygon fill="#8dd3c7" stroke="black" points="1119.82,-122 1116.82,-126 1095.82,-126 1092.82,-122 954.18,-122 954.18,-86 1119.82,-86 1119.82,-122"/>
<text text-anchor="middle" x="1037" y="-99.8" font-family="Times,serif" font-size="14.00">LoginPageRoutingModule</text>
</g>
<!-- LoginPageRoutingModule&#45;&gt;LoginPageModule -->
<g id="edge8" class="edge">
<title>LoginPageRoutingModule&#45;&gt;LoginPageModule</title>
<path fill="none" stroke="black" d="M1080.78,-122.11C1080.78,-122.11 1080.78,-140.99 1080.78,-140.99"/>
<polygon fill="black" stroke="black" points="1077.28,-140.99 1080.78,-150.99 1084.28,-140.99 1077.28,-140.99"/>
</g>
<!-- RegistrationPage -->
<g id="node12" class="node">
<title>RegistrationPage</title>
<polygon fill="#ffffb3" stroke="black" points="1595.65,-122 1484.35,-122 1484.35,-86 1595.65,-86 1595.65,-122"/>
<text text-anchor="middle" x="1540" y="-99.8" font-family="Times,serif" font-size="14.00">RegistrationPage</text>
</g>
<!-- RegistrationPageModule -->
<g id="node13" class="node">
<title>RegistrationPageModule</title>
<polygon fill="#8dd3c7" stroke="black" points="1520.7,-187 1517.7,-191 1496.7,-191 1493.7,-187 1365.3,-187 1365.3,-151 1520.7,-151 1520.7,-187"/>
<text text-anchor="middle" x="1443" y="-164.8" font-family="Times,serif" font-size="14.00">RegistrationPageModule</text>
</g>
<!-- RegistrationPage&#45;&gt;RegistrationPageModule -->
<g id="edge9" class="edge">
<title>RegistrationPage&#45;&gt;RegistrationPageModule</title>
<path fill="none" stroke="black" d="M1502.39,-122.11C1502.39,-122.11 1502.39,-140.99 1502.39,-140.99"/>
<polygon fill="black" stroke="black" points="1498.89,-140.99 1502.39,-150.99 1505.89,-140.99 1498.89,-140.99"/>
</g>
<!-- RegistrationPageRoutingModule -->
<g id="node14" class="node">
<title>RegistrationPageRoutingModule</title>
<polygon fill="#8dd3c7" stroke="black" points="1460.31,-122 1457.31,-126 1436.31,-126 1433.31,-122 1259.69,-122 1259.69,-86 1460.31,-86 1460.31,-122"/>
<text text-anchor="middle" x="1360" y="-99.8" font-family="Times,serif" font-size="14.00">RegistrationPageRoutingModule</text>
</g>
<!-- RegistrationPageRoutingModule&#45;&gt;RegistrationPageModule -->
<g id="edge10" class="edge">
<title>RegistrationPageRoutingModule&#45;&gt;RegistrationPageModule</title>
<path fill="none" stroke="black" d="M1412.78,-122.11C1412.78,-122.11 1412.78,-140.99 1412.78,-140.99"/>
<polygon fill="black" stroke="black" points="1409.28,-140.99 1412.78,-150.99 1416.28,-140.99 1409.28,-140.99"/>
</g>
<!-- Tab1Page -->
<g id="node15" class="node">
<title>Tab1Page</title>
<polygon fill="#ffffb3" stroke="black" points="1891.98,-122 1820.02,-122 1820.02,-86 1891.98,-86 1891.98,-122"/>
<text text-anchor="middle" x="1856" y="-99.8" font-family="Times,serif" font-size="14.00">Tab1Page</text>
</g>
<!-- Tab1PageModule -->
<g id="node16" class="node">
<title>Tab1PageModule</title>
<polygon fill="#8dd3c7" stroke="black" points="1836.53,-187 1833.53,-191 1812.53,-191 1809.53,-187 1721.47,-187 1721.47,-151 1836.53,-151 1836.53,-187"/>
<text text-anchor="middle" x="1779" y="-164.8" font-family="Times,serif" font-size="14.00">Tab1PageModule</text>
</g>
<!-- Tab1Page&#45;&gt;Tab1PageModule -->
<g id="edge11" class="edge">
<title>Tab1Page&#45;&gt;Tab1PageModule</title>
<path fill="none" stroke="black" d="M1828.39,-122.11C1828.39,-122.11 1828.39,-140.99 1828.39,-140.99"/>
<polygon fill="black" stroke="black" points="1824.89,-140.99 1828.39,-150.99 1831.89,-140.99 1824.89,-140.99"/>
</g>
<!-- Tab1PageRoutingModule -->
<g id="node17" class="node">
<title>Tab1PageRoutingModule</title>
<polygon fill="#8dd3c7" stroke="black" points="1796.15,-122 1793.15,-126 1772.15,-126 1769.15,-122 1635.85,-122 1635.85,-86 1796.15,-86 1796.15,-122"/>
<text text-anchor="middle" x="1716" y="-99.8" font-family="Times,serif" font-size="14.00">Tab1PageRoutingModule</text>
</g>
<!-- Tab1PageRoutingModule&#45;&gt;Tab1PageModule -->
<g id="edge12" class="edge">
<title>Tab1PageRoutingModule&#45;&gt;Tab1PageModule</title>
<path fill="none" stroke="black" d="M1758.78,-122.11C1758.78,-122.11 1758.78,-140.99 1758.78,-140.99"/>
<polygon fill="black" stroke="black" points="1755.28,-140.99 1758.78,-150.99 1762.28,-140.99 1755.28,-140.99"/>
</g>
<!-- Tab2Page -->
<g id="node18" class="node">
<title>Tab2Page</title>
<polygon fill="#ffffb3" stroke="black" points="2187.98,-122 2116.02,-122 2116.02,-86 2187.98,-86 2187.98,-122"/>
<text text-anchor="middle" x="2152" y="-99.8" font-family="Times,serif" font-size="14.00">Tab2Page</text>
</g>
<!-- Tab2PageModule -->
<g id="node19" class="node">
<title>Tab2PageModule</title>
<polygon fill="#8dd3c7" stroke="black" points="2132.53,-187 2129.53,-191 2108.53,-191 2105.53,-187 2017.47,-187 2017.47,-151 2132.53,-151 2132.53,-187"/>
<text text-anchor="middle" x="2075" y="-164.8" font-family="Times,serif" font-size="14.00">Tab2PageModule</text>
</g>
<!-- Tab2Page&#45;&gt;Tab2PageModule -->
<g id="edge13" class="edge">
<title>Tab2Page&#45;&gt;Tab2PageModule</title>
<path fill="none" stroke="black" d="M2124.39,-122.11C2124.39,-122.11 2124.39,-140.99 2124.39,-140.99"/>
<polygon fill="black" stroke="black" points="2120.89,-140.99 2124.39,-150.99 2127.89,-140.99 2120.89,-140.99"/>
</g>
<!-- Tab2PageRoutingModule -->
<g id="node20" class="node">
<title>Tab2PageRoutingModule</title>
<polygon fill="#8dd3c7" stroke="black" points="2092.15,-122 2089.15,-126 2068.15,-126 2065.15,-122 1931.85,-122 1931.85,-86 2092.15,-86 2092.15,-122"/>
<text text-anchor="middle" x="2012" y="-99.8" font-family="Times,serif" font-size="14.00">Tab2PageRoutingModule</text>
</g>
<!-- Tab2PageRoutingModule&#45;&gt;Tab2PageModule -->
<g id="edge14" class="edge">
<title>Tab2PageRoutingModule&#45;&gt;Tab2PageModule</title>
<path fill="none" stroke="black" d="M2054.78,-122.11C2054.78,-122.11 2054.78,-140.99 2054.78,-140.99"/>
<polygon fill="black" stroke="black" points="2051.28,-140.99 2054.78,-150.99 2058.28,-140.99 2051.28,-140.99"/>
</g>
<!-- Tab3Page -->
<g id="node21" class="node">
<title>Tab3Page</title>
<polygon fill="#ffffb3" stroke="black" points="2483.98,-122 2412.02,-122 2412.02,-86 2483.98,-86 2483.98,-122"/>
<text text-anchor="middle" x="2448" y="-99.8" font-family="Times,serif" font-size="14.00">Tab3Page</text>
</g>
<!-- Tab3PageModule -->
<g id="node22" class="node">
<title>Tab3PageModule</title>
<polygon fill="#8dd3c7" stroke="black" points="2428.53,-187 2425.53,-191 2404.53,-191 2401.53,-187 2313.47,-187 2313.47,-151 2428.53,-151 2428.53,-187"/>
<text text-anchor="middle" x="2371" y="-164.8" font-family="Times,serif" font-size="14.00">Tab3PageModule</text>
</g>
<!-- Tab3Page&#45;&gt;Tab3PageModule -->
<g id="edge15" class="edge">
<title>Tab3Page&#45;&gt;Tab3PageModule</title>
<path fill="none" stroke="black" d="M2420.39,-122.11C2420.39,-122.11 2420.39,-140.99 2420.39,-140.99"/>
<polygon fill="black" stroke="black" points="2416.89,-140.99 2420.39,-150.99 2423.89,-140.99 2416.89,-140.99"/>
</g>
<!-- Tab3PageRoutingModule -->
<g id="node23" class="node">
<title>Tab3PageRoutingModule</title>
<polygon fill="#8dd3c7" stroke="black" points="2388.15,-122 2385.15,-126 2364.15,-126 2361.15,-122 2227.85,-122 2227.85,-86 2388.15,-86 2388.15,-122"/>
<text text-anchor="middle" x="2308" y="-99.8" font-family="Times,serif" font-size="14.00">Tab3PageRoutingModule</text>
</g>
<!-- Tab3PageRoutingModule&#45;&gt;Tab3PageModule -->
<g id="edge16" class="edge">
<title>Tab3PageRoutingModule&#45;&gt;Tab3PageModule</title>
<path fill="none" stroke="black" d="M2350.78,-122.11C2350.78,-122.11 2350.78,-140.99 2350.78,-140.99"/>
<polygon fill="black" stroke="black" points="2347.28,-140.99 2350.78,-150.99 2354.28,-140.99 2347.28,-140.99"/>
</g>
<!-- TabsPage -->
<g id="node24" class="node">
<title>TabsPage</title>
<polygon fill="#ffffb3" stroke="black" points="2778.42,-122 2707.58,-122 2707.58,-86 2778.42,-86 2778.42,-122"/>
<text text-anchor="middle" x="2743" y="-99.8" font-family="Times,serif" font-size="14.00">TabsPage</text>
</g>
<!-- TabsPageModule -->
<g id="node25" class="node">
<title>TabsPageModule</title>
<polygon fill="#8dd3c7" stroke="black" points="2722.97,-187 2719.97,-191 2698.97,-191 2695.97,-187 2609.03,-187 2609.03,-151 2722.97,-151 2722.97,-187"/>
<text text-anchor="middle" x="2666" y="-164.8" font-family="Times,serif" font-size="14.00">TabsPageModule</text>
</g>
<!-- TabsPage&#45;&gt;TabsPageModule -->
<g id="edge17" class="edge">
<title>TabsPage&#45;&gt;TabsPageModule</title>
<path fill="none" stroke="black" d="M2715.39,-122.11C2715.39,-122.11 2715.39,-140.99 2715.39,-140.99"/>
<polygon fill="black" stroke="black" points="2711.89,-140.99 2715.39,-150.99 2718.89,-140.99 2711.89,-140.99"/>
</g>
<!-- TabsPageRoutingModule -->
<g id="node26" class="node">
<title>TabsPageRoutingModule</title>
<polygon fill="#8dd3c7" stroke="black" points="2683.59,-122 2680.59,-126 2659.59,-126 2656.59,-122 2524.41,-122 2524.41,-86 2683.59,-86 2683.59,-122"/>
<text text-anchor="middle" x="2604" y="-99.8" font-family="Times,serif" font-size="14.00">TabsPageRoutingModule</text>
</g>
<!-- TabsPageRoutingModule&#45;&gt;TabsPageModule -->
<g id="edge18" class="edge">
<title>TabsPageRoutingModule&#45;&gt;TabsPageModule</title>
<path fill="none" stroke="black" d="M2646.28,-122.11C2646.28,-122.11 2646.28,-140.99 2646.28,-140.99"/>
<polygon fill="black" stroke="black" points="2642.78,-140.99 2646.28,-150.99 2649.78,-140.99 2642.78,-140.99"/>
</g>
</g>
</svg>
